<?xml version="1.0" encoding="UTF-8"?>
<svg xmlns="http://www.w3.org/2000/svg" xmlns:xlink="http://www.w3.org/1999/xlink" width="128px" height="40px" viewBox="0 0 128 40" version="1.1">
<g id="surface1">
<path style=" stroke:none;fill-rule:nonzero;fill:rgb(61.960787%,40.784314%,92.54902%);fill-opacity:1;" d="M 2.6875 12.3125 L 3.1875 12.375 L 4.1875 12.9375 L 5.6875 13.75 L 7.125 14.5625 L 8.625 15.375 L 10.0625 16.1875 L 11.5625 17 L 13.8125 18.25 L 15.375 19.125 L 16.875 19.9375 L 18.3125 20.75 L 19.1875 21.1875 L 20.875 20.25 L 22.375 19.4375 L 23.8125 18.625 L 25.3125 17.8125 L 26.75 17 L 28.25 16.1875 L 29.6875 15.375 L 31.1875 14.5625 L 32.625 13.75 L 34.375 12.8125 L 35.25 12.3125 L 35.6875 12.375 L 35.8125 12.625 L 35.8125 20.5 L 35.625 20.8125 L 34.3125 21.5625 L 28.875 24.5625 L 28 25.0625 L 27.8125 25.125 L 27.75 32.8125 L 27.375 33.125 L 25.625 34.0625 L 24.1875 34.875 L 22.6875 35.6875 L 21.375 36.4375 L 21.0625 36.5625 L 17.25 36.5625 L 16.25 36.0625 L 12.625 34.0625 L 10.9375 33.125 L 10.5625 32.8125 L 10.5625 25.125 L 10.1875 25 L 2.9375 21 L 2.5625 20.75 L 2.5 20.625 L 2.5 12.5 Z M 2.6875 12.3125 "/>
<path style=" stroke:none;fill-rule:nonzero;fill:rgb(31.37255%,5.882353%,64.313728%);fill-opacity:1;" d="M 18.9375 4.125 L 19.4375 4.125 L 20.875 4.9375 L 22.3125 5.6875 L 23.6875 6.4375 L 24.8125 7.0625 L 26.1875 7.8125 L 27.8125 8.6875 L 29.3125 9.5 L 30.75 10.3125 L 32.1875 11.0625 L 33.1875 11.625 L 33.375 11.75 L 33.375 12.1875 L 32.875 12.5625 L 31.9375 13.0625 L 28 15.25 L 26.625 16 L 26.25 15.9375 L 24.6875 15.125 L 20.3125 12.75 L 19.1875 12.125 L 18.875 12.25 L 17.125 13.1875 L 15.3125 14.1875 L 12.1875 15.875 L 11.875 16 L 11.5625 15.9375 L 9.9375 15.0625 L 8.5 14.25 L 6.875 13.375 L 5.75 12.75 L 5 12.3125 L 4.9375 12.25 L 4.9375 11.75 L 5.4375 11.4375 L 7.3125 10.4375 L 8.6875 9.6875 L 10.1875 8.875 L 11.625 8.0625 L 13.625 7 L 15 6.25 L 16.625 5.375 L 18 4.625 Z M 18.9375 4.125 "/>
<path style=" stroke:none;fill-rule:nonzero;fill:rgb(0%,0%,0%);fill-opacity:1;" d="M 70.5625 14.3125 L 80.1875 14.3125 L 80.9375 14.5 L 81.8125 14.9375 L 82.5 15.5 L 82.9375 16.125 L 83.25 16.8125 L 83.375 17.375 L 83.375 18.3125 L 83.3125 18.6875 L 83.0625 19.5 L 82.6875 20.125 L 82.25 20.5625 L 81.75 20.875 L 82 21.0625 L 82.625 21.5 L 83.125 22.0625 L 83.4375 22.6875 L 83.6875 23.75 L 83.6875 24.6875 L 83.4375 25.6875 L 83.125 26.3125 L 82.5625 26.9375 L 82.0625 27.375 L 81.1875 27.8125 L 80.1875 28.0625 L 79.0625 28.125 L 71.9375 28.125 L 70.5 28.0625 L 70.3125 27.875 L 70.3125 14.5625 Z M 75.1875 17.75 L 75.1875 19.4375 L 77.9375 19.4375 L 78.3125 19.25 L 78.5 18.875 L 78.5 18.3125 L 78.25 17.9375 L 77.875 17.75 Z M 75.1875 22.75 L 75.1875 24.4375 L 78.25 24.4375 L 78.5625 24.25 L 78.8125 23.875 L 78.8125 23.3125 L 78.5625 22.9375 L 78.3125 22.75 Z M 75.1875 22.75 "/>
<path style=" stroke:none;fill-rule:nonzero;fill:rgb(0%,0%,0%);fill-opacity:1;" d="M 47.625 14 L 47.9375 14.0625 L 49.125 14.125 L 50.25 14.375 L 51.25 14.75 L 52 15.1875 L 52.6875 15.75 L 53.125 16.1875 L 53.6875 17.0625 L 54.0625 18 L 54.25 18.9375 L 54.3125 19.375 L 54.3125 20.0625 L 54.0625 20.3125 L 49.9375 20.3125 L 49.6875 20.0625 L 49.5 19.125 L 49.1875 18.5 L 48.6875 18.0625 L 47.875 17.8125 L 47.3125 17.8125 L 46.5 18.0625 L 45.9375 18.5625 L 45.625 19.25 L 45.4375 20.1875 L 45.4375 22.1875 L 45.6875 23.3125 L 46.0625 23.9375 L 46.4375 24.25 L 46.875 24.4375 L 47.625 24.5625 L 48.4375 24.4375 L 49.3125 24 L 49.4375 23.75 L 49.6875 23.125 L 49.8125 22.375 L 50 22.125 L 54.0625 22.125 L 54.25 22.3125 L 54.3125 22.5 L 54.3125 23.0625 L 54.125 24.1875 L 53.8125 25.125 L 53.375 25.9375 L 52.6875 26.6875 L 52.1875 27.125 L 51.1875 27.6875 L 50.0625 28.0625 L 49.0625 28.25 L 48.5 28.3125 L 46.75 28.3125 L 45.5 28.125 L 44.6875 27.9375 L 43.75 27.5625 L 42.9375 27.0625 L 42.3125 26.5 L 41.875 26.0625 L 41.3125 25.1875 L 40.9375 24.3125 L 40.6875 23.4375 L 40.5 22.125 L 40.5 20.1875 L 40.6875 18.9375 L 41 17.875 L 41.5 16.875 L 42 16.1875 L 42.8125 15.375 L 43.625 14.875 L 44.5 14.5 L 45.6875 14.1875 L 46.6875 14.0625 L 47.5 14.0625 Z M 47.625 14 "/>
<path style=" stroke:none;fill-rule:nonzero;fill:rgb(38.82353%,12.941177%,73.725492%);fill-opacity:1;" d="M 107.375 14.3125 L 112.5625 14.3125 L 112.875 14.9375 L 114.1875 18.5625 L 115.3125 21.625 L 116.5625 25.0625 L 117.5 27.625 L 117.4375 27.9375 L 117.375 28.0625 L 112.5625 28.0625 L 112.375 27.75 L 111.9375 26.25 L 107.75 26.1875 L 107.625 26.75 L 107.25 27.9375 L 107.1875 28.0625 L 102.5625 28.0625 L 102.375 27.8125 L 102.5 27.25 L 103.8125 23.625 L 104.9375 20.5625 L 106.1875 17.125 L 107.125 14.5625 Z M 109.8125 19.1875 L 108.8125 22.5625 L 108.8125 22.6875 L 110.875 22.6875 L 110.75 22.0625 L 109.9375 19.3125 Z M 109.8125 19.1875 "/>
<path style=" stroke:none;fill-rule:nonzero;fill:rgb(0%,0%,0%);fill-opacity:1;" d="M 90.3125 14 L 90.625 14.0625 L 91.75 14.125 L 92.8125 14.375 L 93.8125 14.8125 L 94.4375 15.25 L 94.9375 15.6875 L 95.375 16.3125 L 95.625 16.9375 L 95.75 17.4375 L 95.75 18.5 L 95.5 19.375 L 95.0625 20.125 L 94.4375 20.75 L 94.25 20.875 L 94.9375 21.3125 L 95.375 21.75 L 95.8125 22.4375 L 96.0625 23.1875 L 96.125 23.8125 L 96.1875 23.9375 L 96.1875 24.3125 L 96.125 24.5 L 96 25.25 L 95.6875 26 L 95.25 26.5625 L 94.9375 26.875 L 94.4375 27.3125 L 93.8125 27.6875 L 92.75 28.0625 L 91.75 28.25 L 91.1875 28.3125 L 89.3125 28.3125 L 87.75 28.0625 L 86.75 27.6875 L 86 27.3125 L 85.25 26.625 L 84.75 25.9375 L 84.5 25.3125 L 84.375 24.75 L 84.375 23.9375 L 84.5 23.625 L 84.625 23.5 L 88 23.5 L 88.1875 23.5625 L 88.5625 24.5625 L 88.9375 24.875 L 89.625 25.0625 L 90.5 25.0625 L 91.1875 24.8125 L 91.5 24.5 L 91.6875 23.9375 L 91.6875 23.3125 L 91.5 22.875 L 91.0625 22.625 L 90.75 22.5625 L 89.1875 22.5 L 89 22.3125 L 89 19.8125 L 89.125 19.625 L 90.5625 19.5625 L 91.1875 19.25 L 91.375 18.875 L 91.375 18.1875 L 91.1875 17.8125 L 91.125 17.625 L 90.875 17.5 L 90.25 17.3125 L 89.4375 17.375 L 89.0625 17.5625 L 88.75 17.875 L 88.5625 18.5625 L 88.375 18.6875 L 85 18.6875 L 84.8125 18.5 L 84.8125 17.3125 L 85.125 16.4375 L 85.625 15.75 L 86.1875 15.1875 L 87.0625 14.6875 L 87.875 14.375 L 88.9375 14.125 L 89.5 14.0625 L 90.1875 14.0625 Z M 90.3125 14 "/>
<path style=" stroke:none;fill-rule:nonzero;fill:rgb(0%,0%,0%);fill-opacity:1;" d="M 54.6875 14.3125 L 59.75 14.3125 L 60.25 15.125 L 61.25 16.875 L 62.125 18.375 L 62.625 17.5625 L 63.5625 15.9375 L 64.4375 14.4375 L 64.5625 14.3125 L 69.375 14.3125 L 69.5625 14.4375 L 69.5625 14.8125 L 68.625 16.3125 L 67.9375 17.375 L 67.0625 18.75 L 66.0625 20.3125 L 65.1875 21.6875 L 64.5625 22.625 L 64.5 27.6875 L 64.375 28 L 64.3125 28.0625 L 62.9375 28.125 L 61.5 28.125 L 59.8125 28.0625 L 59.625 27.875 L 59.5625 22.6875 L 58.5625 21.125 L 57.375 19.3125 L 56.375 17.75 L 55.3125 16.125 L 54.625 15.0625 L 54.4375 14.75 L 54.5 14.4375 Z M 54.6875 14.3125 "/>
<path style=" stroke:none;fill-rule:nonzero;fill:rgb(38.82353%,12.941177%,73.725492%);fill-opacity:1;" d="M 118.625 14.3125 L 123 14.3125 L 123.25 14.5 L 123.25 27.875 L 123.0625 28.0625 L 121.6875 28.125 L 120.5 28.125 L 118.5625 28.0625 L 118.4375 27.9375 L 118.4375 14.4375 Z M 118.625 14.3125 "/>
<path style=" stroke:none;fill-rule:nonzero;fill:rgb(31.37255%,5.882353%,64.313728%);fill-opacity:1;" d="M 18.9375 4.125 L 19.4375 4.125 L 20.875 4.9375 L 22.3125 5.6875 L 23.6875 6.4375 L 24.8125 7.0625 L 26.1875 7.8125 L 27.8125 8.6875 L 29.3125 9.5 L 30.75 10.3125 L 32.1875 11.0625 L 33.1875 11.625 L 33.375 11.75 L 33.375 12.1875 L 32.875 12.5625 L 31.9375 13.0625 L 28 15.25 L 26.625 16 L 26.25 15.9375 L 24.6875 15.125 L 20.3125 12.75 L 19.1875 12.125 L 18.875 12.25 L 17.125 13.1875 L 15.3125 14.1875 L 12.1875 15.875 L 11.875 16 L 11.5625 15.9375 L 9.9375 15.0625 L 8.5 14.25 L 6.875 13.375 L 5.75 12.75 L 5 12.3125 L 4.9375 12.25 L 4.9375 11.75 L 5.4375 11.4375 L 7.3125 10.4375 L 8.6875 9.6875 L 10.1875 8.875 L 11.625 8.0625 L 13.625 7 L 15 6.25 L 16.625 5.375 L 18 4.625 Z M 19.0625 4.375 L 18.5625 4.6875 L 18.125 4.875 L 17.4375 5.25 L 16.9375 5.5 L 16.9375 5.625 L 16.625 5.6875 L 16.375 5.8125 L 16.375 5.9375 L 15.9375 6.0625 L 15.25 6.4375 L 14.875 6.625 L 14.875 6.75 L 14.5625 6.8125 L 14.0625 7.125 L 13.625 7.3125 L 13.5 7.5625 L 13.3125 7.5625 L 13.3125 7.6875 L 13.0625 7.75 L 12.9375 8.1875 L 12.9375 9.25 L 12.875 10.3125 L 12.9375 10.625 L 13.1875 10.75 L 13.5 11.25 L 13.875 11.5625 L 14.0625 11.8125 L 14.1875 11.8125 L 14.1875 11.9375 L 14.3125 11.9375 L 14.5 12.6875 L 14.8125 13.125 L 15.125 13.25 L 16.375 13.125 L 16.6875 13 L 17.25 12.8125 L 17.75 12.5 L 18.125 12.3125 L 19.0625 11.8125 L 19.3125 11.875 L 20.3125 12.4375 L 20.9375 12.75 L 21.8125 13.25 L 22.4375 13.5625 L 23.1875 14 L 23.9375 14.375 L 24.6875 14.8125 L 25.3125 15.125 L 26.3125 15.6875 L 26.625 15.6875 L 29.375 14.1875 L 31.0625 13.25 L 31.9375 12.75 L 32.5625 12.375 L 33.1875 12.0625 L 33.1875 11.9375 L 31.6875 11.125 L 31.4375 10.9375 L 31 10.75 L 30.625 10.5 L 30.1875 10.3125 L 29.375 9.875 L 27.3125 8.75 L 25.875 7.9375 L 24.9375 7.4375 L 23.9375 6.9375 L 23.5625 6.6875 L 23.0625 6.4375 L 22.375 6.0625 L 21.875 5.75 L 21.625 5.75 L 21.625 5.625 L 19.4375 4.5 L 19.25 4.375 Z M 19.0625 4.375 "/>
<path style=" stroke:none;fill-rule:nonzero;fill:rgb(81.568629%,71.372551%,98.823529%);fill-opacity:1;" d="M 2.6875 12.3125 L 3.1875 12.375 L 4.1875 12.9375 L 5.6875 13.75 L 7.125 14.5625 L 8.625 15.375 L 10.0625 16.1875 L 11.5625 17 L 13.8125 18.25 L 15.375 19.125 L 16.875 19.9375 L 18.3125 20.75 L 19.1875 21.1875 L 20.875 20.25 L 22.375 19.4375 L 23.8125 18.625 L 25.3125 17.8125 L 26.75 17 L 28.25 16.1875 L 29.6875 15.375 L 31.1875 14.5625 L 32.625 13.75 L 34.375 12.8125 L 35.25 12.3125 L 35.6875 12.375 L 35.8125 12.625 L 35.8125 20.5 L 35.625 20.8125 L 34.3125 21.5625 L 28.875 24.5625 L 28 25.0625 L 27.8125 25.125 L 27.75 32.8125 L 27.375 33.125 L 25.625 34.0625 L 24.1875 34.875 L 22.6875 35.6875 L 21.375 36.4375 L 21.0625 36.5625 L 17.25 36.5625 L 16.25 36.0625 L 12.625 34.0625 L 10.9375 33.125 L 10.5625 32.8125 L 10.5625 25.125 L 10.1875 25 L 2.9375 21 L 2.5625 20.75 L 2.5 20.625 L 2.5 12.5 Z M 2.75 12.5 L 2.75 20.5625 L 3.875 21.1875 L 4.75 21.6875 L 7.5 23.1875 L 8.375 23.6875 L 8.9375 24 L 9.625 24.375 L 10.6875 24.9375 L 10.75 25 L 10.8125 32.6875 L 11.375 33.0625 L 12 33.4375 L 13 33.9375 L 14.8125 34.9375 L 15.25 35.1875 L 17.0625 36.1875 L 17.3125 36.3125 L 19.0625 36.3125 L 21.125 36.25 L 22.25 35.625 L 22.9375 35.25 L 24.4375 34.4375 L 25.875 33.625 L 27.375 32.8125 L 27.5 32.6875 L 27.5625 25 L 29 24.1875 L 30.8125 23.1875 L 31.8125 22.625 L 32.5 22.25 L 33.625 21.625 L 34.3125 21.25 L 35.375 20.6875 L 35.5625 20.5625 L 35.5625 12.5625 L 35.1875 12.625 L 34.3125 13.125 L 34.0625 13.375 L 33.125 14.0625 L 32.4375 14.5 L 31.5 15.125 L 29.9375 16.125 L 28.625 17 L 26.8125 18.1875 L 23.375 20.4375 L 21.25 21.8125 L 20.375 22.375 L 20.1875 23.625 L 20 23.8125 L 19.75 24 L 18.8125 23.9375 L 18.75 23.75 L 18.4375 23.6875 L 18.0625 23.8125 L 18 23 L 17.9375 22.4375 L 17.1875 21.875 L 16.1875 21.25 L 12.4375 18.8125 L 10.625 17.625 L 8.9375 16.5 L 8.25 16.0625 L 5.625 14.3125 L 4.125 13.375 L 3.75 13.0625 L 3.5625 12.875 L 2.8125 12.5 Z M 2.75 12.5 "/>
<path style=" stroke:none;fill-rule:nonzero;fill:rgb(22.745098%,3.921569%,45.882353%);fill-opacity:1;" d="M 18.6875 4.5625 L 19.1875 4.5625 L 19.1875 11.6875 L 18.625 12.0625 L 18.125 12.3125 L 17.5625 12.625 L 16.8125 13 L 16.5625 13.0625 L 15.875 13.1875 L 15.125 13.25 L 14.8125 13.125 L 14.4375 12.5625 L 14.3125 11.9375 L 14.1875 11.9375 L 14.1875 11.8125 L 13.9375 11.6875 L 13.625 11.375 L 13.3125 11 L 13.1875 10.75 L 12.9375 10.625 L 12.875 10 L 12.9375 8.875 L 12.9375 8.1875 L 13.125 7.6875 L 13.3125 7.6875 L 13.3125 7.5625 L 13.5 7.5625 L 13.625 7.3125 L 14.25 7 L 14.625 6.75 L 14.875 6.75 L 14.875 6.625 L 15.625 6.25 L 16 6 L 16.375 5.9375 L 16.375 5.8125 L 16.75 5.625 L 16.9375 5.625 L 16.9375 5.5 L 17.8125 5.0625 L 18.3125 4.75 L 18.625 4.625 Z M 18.6875 4.5625 "/>
<path style=" stroke:none;fill-rule:nonzero;fill:rgb(52.941179%,26.666668%,88.627452%);fill-opacity:1;" d="M 11.3125 26.9375 L 11.75 27 L 12.3125 27.6875 L 13 28.6875 L 13.375 28.9375 L 13.8125 29.375 L 14.3125 29.625 L 15.125 30.5 L 15.25 30.5625 L 15.25 30.6875 L 15.5 30.8125 L 15.9375 31.25 L 16.5625 31.75 L 16.875 32.0625 L 17.1875 32.3125 L 17.25 32.5625 L 17.75 32.9375 L 18.0625 33.25 L 18.5625 33.6875 L 18.6875 33.9375 L 18.8125 33.9375 L 19 35.25 L 19.0625 36.1875 L 19 36.25 L 17.125 36.25 L 16.125 35.6875 L 15.25 35.1875 L 14.5625 34.8125 L 12.875 33.875 L 11.8125 33.3125 L 10.9375 32.8125 L 10.8125 32.6875 L 10.875 27 L 11.25 27 Z M 11.3125 26.9375 "/>
<path style=" stroke:none;fill-rule:nonzero;fill:rgb(98.823529%,98.823529%,99.215686%);fill-opacity:1;" d="M 2.6875 12.3125 L 3.1875 12.375 L 4.1875 12.9375 L 5.6875 13.75 L 7.125 14.5625 L 8.625 15.375 L 10.0625 16.1875 L 11.5625 17 L 13.8125 18.25 L 15.375 19.125 L 16.875 19.9375 L 18.3125 20.75 L 19.1875 21.1875 L 20.875 20.25 L 22.375 19.4375 L 23.8125 18.625 L 25.3125 17.8125 L 26.75 17 L 28.25 16.1875 L 29.6875 15.375 L 31.1875 14.5625 L 32.625 13.75 L 34.375 12.8125 L 35.25 12.3125 L 35.6875 12.375 L 35.8125 12.625 L 35.8125 20.5 L 35.625 20.8125 L 34.3125 21.5625 L 28.875 24.5625 L 28 25.0625 L 27.8125 25.125 L 27.75 32.8125 L 27.375 33.125 L 25.625 34.0625 L 24.1875 34.875 L 22.6875 35.6875 L 21.375 36.4375 L 21.0625 36.5625 L 17.25 36.5625 L 16.25 36.0625 L 12.625 34.0625 L 10.9375 33.125 L 10.5625 32.8125 L 10.5625 25.125 L 10.1875 25 L 2.9375 21 L 2.5625 20.75 L 2.5 20.625 L 2.5 12.5 Z M 2.75 12.5 L 2.75 20.5625 L 3.875 21.1875 L 4.75 21.6875 L 7.5 23.1875 L 8.375 23.6875 L 8.9375 24 L 9.625 24.375 L 10.6875 24.9375 L 10.75 25 L 10.8125 32.6875 L 11.375 33.0625 L 12 33.4375 L 13 33.9375 L 14.8125 34.9375 L 15.25 35.1875 L 17.0625 36.1875 L 17.3125 36.3125 L 19.0625 36.3125 L 21.125 36.25 L 22.25 35.625 L 22.9375 35.25 L 24.4375 34.4375 L 25.875 33.625 L 27.375 32.8125 L 27.5 32.6875 L 27.5625 25 L 29 24.1875 L 30.8125 23.1875 L 31.8125 22.625 L 32.5 22.25 L 33.625 21.625 L 34.3125 21.25 L 35.375 20.6875 L 35.5625 20.5625 L 35.5625 12.5625 L 35.1875 12.625 L 34.0625 13.25 L 32.5625 14.0625 L 31.125 14.875 L 29.75 15.625 L 28.3125 16.4375 L 26.8125 17.25 L 25.6875 17.875 L 22.1875 19.8125 L 20.6875 20.625 L 19.375 21.375 L 19.125 21.4375 L 18.125 20.9375 L 16.75 20.1875 L 13.9375 18.625 L 12.5625 17.875 L 11.125 17.0625 L 9.625 16.25 L 8.5 15.625 L 7.5 15.0625 L 6.375 14.4375 L 4.8125 13.5625 L 3.3125 12.75 Z M 2.75 12.5 "/>
<path style=" stroke:none;fill-rule:nonzero;fill:rgb(32.156864%,6.666667%,65.098041%);fill-opacity:1;" d="M 5.25 23.5 L 5.625 23.625 L 7.3125 24.5 L 8.75 25.3125 L 9.3125 25.625 L 9.375 25.75 L 9.375 30.875 L 9.25 31.0625 L 8.8125 31.0625 L 7.0625 30.125 L 5.9375 29.5 L 5.0625 29 L 5 28.875 L 5 23.8125 Z M 5.25 23.5 "/>
<path style=" stroke:none;fill-rule:nonzero;fill:rgb(32.156864%,6.666667%,65.098041%);fill-opacity:1;" d="M 32.8125 23.5625 L 33.125 23.5625 L 33.3125 23.9375 L 33.3125 24.8125 L 33.375 24.875 L 33.375 28.3125 L 33.25 28.8125 L 32.875 29.125 L 31.875 29.6875 L 31.1875 30.0625 L 30 30.6875 L 29.375 31 L 29 30.9375 L 28.9375 30.8125 L 28.9375 25.75 L 29.3125 25.4375 L 31.0625 24.5 L 32.5 23.6875 Z M 32.8125 23.5625 "/>
<path style=" stroke:none;fill-rule:nonzero;fill:rgb(67.058825%,47.843137%,95.686275%);fill-opacity:1;" d="M 33.375 13.875 L 33.5 13.9375 L 32.8125 14.5625 L 31.5625 15.5625 L 31.125 15.8125 L 30.9375 15.875 L 30.9375 16 L 29.6875 16.9375 L 27.5625 18.5 L 26.4375 19.3125 L 25.75 19.75 L 25.125 20.1875 L 24.25 20.8125 L 23.5625 21.25 L 23.1875 21.5625 L 22.8125 21.8125 L 22.625 22 L 22.25 22.1875 L 21.4375 23 L 21.25 23.25 L 20.875 23.375 L 20.75 23.875 L 20.4375 24 L 20.375 24.1875 L 20.3125 25.125 L 20.1875 25.75 L 19.8125 30.25 L 19.6875 30.875 L 19.4375 31.25 L 18.875 31.3125 L 18.6875 31.1875 L 18.5625 30.625 L 17.875 23.0625 L 17.8125 22.5 L 17.4375 22.5625 L 17.3125 22.75 L 17 22.4375 L 17.0625 22.25 L 17.25 22.0625 L 16.9375 21.9375 L 16.75 21.75 L 16.9375 21.75 L 17.625 22.1875 L 17.9375 22.4375 L 18.0625 23.4375 L 18.0625 23.8125 L 18.625 23.6875 L 18.8125 23.8125 L 18.8125 23.9375 L 19.75 24 L 20.125 23.75 L 20.25 23.375 L 20.375 22.375 L 21.9375 21.375 L 25.375 19.125 L 30.625 15.6875 L 32.1875 14.6875 L 32.8125 14.25 Z M 33.375 13.875 "/>
<path style=" stroke:none;fill-rule:nonzero;fill:rgb(96.862745%,95.686275%,98.823529%);fill-opacity:1;" d="M 47.625 14 L 47.9375 14.0625 L 49.125 14.125 L 50.25 14.375 L 51.25 14.75 L 52 15.1875 L 52.6875 15.75 L 53.125 16.1875 L 53.6875 17.0625 L 54.0625 18 L 54.25 18.9375 L 54.3125 19.375 L 54.3125 20.0625 L 54.0625 20.3125 L 49.9375 20.3125 L 49.6875 20.0625 L 49.5 19.125 L 49.1875 18.5 L 48.6875 18.0625 L 47.875 17.8125 L 47.3125 17.8125 L 46.5 18.0625 L 45.9375 18.5625 L 45.625 19.25 L 45.4375 20.1875 L 45.4375 22.1875 L 45.6875 23.3125 L 46.0625 23.9375 L 46.4375 24.25 L 46.875 24.4375 L 47.625 24.5625 L 48.4375 24.4375 L 49.3125 24 L 49.4375 23.75 L 49.6875 23.125 L 49.8125 22.375 L 50 22.125 L 54.0625 22.125 L 54.25 22.3125 L 54.3125 22.5 L 54.3125 23.0625 L 54.125 24.1875 L 53.8125 25.125 L 53.375 25.9375 L 52.6875 26.6875 L 52.1875 27.125 L 51.1875 27.6875 L 50.0625 28.0625 L 49.0625 28.25 L 48.5 28.3125 L 46.75 28.3125 L 45.5 28.125 L 44.6875 27.9375 L 43.75 27.5625 L 42.9375 27.0625 L 42.3125 26.5 L 41.875 26.0625 L 41.3125 25.1875 L 40.9375 24.3125 L 40.6875 23.4375 L 40.5 22.125 L 40.5 20.1875 L 40.6875 18.9375 L 41 17.875 L 41.5 16.875 L 42 16.1875 L 42.8125 15.375 L 43.625 14.875 L 44.5 14.5 L 45.6875 14.1875 L 46.6875 14.0625 L 47.5 14.0625 Z M 46.5 14.375 L 45.3125 14.5625 L 44.1875 14.9375 L 43.375 15.375 L 42.5625 16 L 41.9375 16.75 L 41.4375 17.625 L 41.0625 18.6875 L 40.875 19.625 L 40.8125 20.1875 L 40.8125 22.25 L 41 23.4375 L 41.3125 24.5 L 41.875 25.5625 L 42.625 26.4375 L 43.375 27 L 44.375 27.5 L 45.375 27.8125 L 46.5625 28 L 48.6875 28 L 49.875 27.8125 L 51 27.4375 L 51.9375 26.9375 L 52.6875 26.25 L 53.125 25.75 L 53.625 24.8125 L 53.9375 23.625 L 54 23.0625 L 54 22.4375 L 50.125 22.4375 L 50.0625 22.5625 L 49.9375 23.375 L 49.625 24 L 49.1875 24.4375 L 48.625 24.6875 L 47.9375 24.8125 L 47.25 24.8125 L 46.5 24.625 L 45.9375 24.25 L 45.5625 23.75 L 45.3125 23.125 L 45.1875 22.5 L 45.1875 19.875 L 45.4375 18.875 L 45.8125 18.25 L 46.25 17.875 L 46.8125 17.625 L 47.1875 17.5625 L 48.0625 17.5625 L 48.75 17.75 L 49.25 18.125 L 49.625 18.625 L 49.8125 19.125 L 49.9375 20 L 54 20 L 54 19.4375 L 53.875 18.5 L 53.5625 17.5 L 53.125 16.6875 L 52.4375 15.9375 L 51.9375 15.5 L 51.0625 15 L 50.0625 14.625 L 49.1875 14.4375 L 48.6875 14.375 Z M 46.5 14.375 "/>
<path style=" stroke:none;fill-rule:nonzero;fill:rgb(96.862745%,95.294118%,98.823529%);fill-opacity:1;" d="M 90.3125 14 L 90.625 14.0625 L 91.75 14.125 L 92.8125 14.375 L 93.8125 14.8125 L 94.4375 15.25 L 94.9375 15.6875 L 95.375 16.3125 L 95.625 16.9375 L 95.75 17.4375 L 95.75 18.5 L 95.5 19.375 L 95.0625 20.125 L 94.4375 20.75 L 94.25 20.875 L 94.9375 21.3125 L 95.375 21.75 L 95.8125 22.4375 L 96.0625 23.1875 L 96.125 23.8125 L 96.1875 23.9375 L 96.1875 24.3125 L 96.125 24.5 L 96 25.25 L 95.6875 26 L 95.25 26.5625 L 94.9375 26.875 L 94.4375 27.3125 L 93.8125 27.6875 L 92.75 28.0625 L 91.75 28.25 L 91.1875 28.3125 L 89.3125 28.3125 L 87.75 28.0625 L 86.75 27.6875 L 86 27.3125 L 85.25 26.625 L 84.75 25.9375 L 84.5 25.3125 L 84.375 24.75 L 84.375 23.9375 L 84.5 23.625 L 84.625 23.5 L 88 23.5 L 88.1875 23.5625 L 88.5625 24.5625 L 88.9375 24.875 L 89.625 25.0625 L 90.5 25.0625 L 91.1875 24.8125 L 91.5 24.5 L 91.6875 23.9375 L 91.6875 23.3125 L 91.5 22.875 L 91.0625 22.625 L 90.75 22.5625 L 89.1875 22.5 L 89 22.3125 L 89 19.8125 L 89.125 19.625 L 90.5625 19.5625 L 91.1875 19.25 L 91.375 18.875 L 91.375 18.1875 L 91.1875 17.8125 L 91.125 17.625 L 90.875 17.5 L 90.25 17.3125 L 89.4375 17.375 L 89.0625 17.5625 L 88.75 17.875 L 88.5625 18.5625 L 88.375 18.6875 L 85 18.6875 L 84.8125 18.5 L 84.8125 17.3125 L 85.125 16.4375 L 85.625 15.75 L 86.1875 15.1875 L 87.0625 14.6875 L 87.875 14.375 L 88.9375 14.125 L 89.5 14.0625 L 90.1875 14.0625 Z M 89.3125 14.375 L 88.25 14.5625 L 87.375 14.875 L 86.5625 15.3125 L 85.875 15.875 L 85.4375 16.5 L 85.125 17.3125 L 85.0625 17.75 L 85.0625 18.4375 L 88.25 18.4375 L 88.5 17.75 L 88.875 17.3125 L 89.4375 17.0625 L 90.625 17.0625 L 91.125 17.3125 L 91.5 17.75 L 91.6875 18.25 L 91.6875 18.75 L 91.5 19.3125 L 91.1875 19.625 L 90.75 19.8125 L 89.3125 19.875 L 89.3125 22.25 L 91.125 22.3125 L 91.625 22.625 L 91.875 22.9375 L 92 23.4375 L 91.9375 24.25 L 91.6875 24.75 L 91.625 24.9375 L 91.375 25.0625 L 90.9375 25.25 L 90.625 25.3125 L 89.3125 25.3125 L 88.625 25.0625 L 88.25 24.625 L 88.125 24.3125 L 88 23.8125 L 84.6875 23.8125 L 84.6875 24.8125 L 84.9375 25.625 L 85.3125 26.25 L 85.6875 26.6875 L 86.5 27.25 L 87.1875 27.5625 L 88 27.8125 L 89.1875 28 L 91.3125 28 L 92.5 27.8125 L 93.5 27.5 L 94.1875 27.125 L 94.875 26.5625 L 95.4375 25.8125 L 95.75 25 L 95.875 24.1875 L 95.75 23.1875 L 95.4375 22.375 L 95 21.8125 L 94.4375 21.3125 L 93.625 20.9375 L 93.5625 20.8125 L 93.9375 20.6875 L 94.4375 20.3125 L 94.875 19.875 L 95.3125 19 L 95.4375 18.5625 L 95.4375 17.375 L 95.25 16.75 L 94.9375 16.1875 L 94.375 15.5625 L 93.75 15.125 L 92.8125 14.6875 L 91.8125 14.4375 L 91.375 14.375 Z M 89.3125 14.375 "/>
<path style=" stroke:none;fill-rule:nonzero;fill:rgb(97.647059%,96.862745%,99.215686%);fill-opacity:1;" d="M 18.9375 4.125 L 19.4375 4.125 L 20.875 4.9375 L 22.3125 5.6875 L 23.6875 6.4375 L 24.8125 7.0625 L 26.1875 7.8125 L 27.8125 8.6875 L 29.3125 9.5 L 30.75 10.3125 L 32.1875 11.0625 L 33.1875 11.625 L 33.375 11.75 L 33.375 12.1875 L 32.875 12.5625 L 31.9375 13.0625 L 28 15.25 L 26.625 16 L 26.25 15.9375 L 24.6875 15.125 L 20.3125 12.75 L 19.1875 12.125 L 18.875 12.25 L 17.125 13.1875 L 15.3125 14.1875 L 12.1875 15.875 L 11.875 16 L 11.5625 15.9375 L 9.9375 15.0625 L 8.5 14.25 L 6.875 13.375 L 5.75 12.75 L 5 12.3125 L 4.9375 12.25 L 4.9375 11.75 L 5.4375 11.4375 L 7.3125 10.4375 L 8.6875 9.6875 L 10.1875 8.875 L 11.625 8.0625 L 13.625 7 L 15 6.25 L 16.625 5.375 L 18 4.625 Z M 19.0625 4.375 L 18.5625 4.6875 L 18.125 4.875 L 17.4375 5.25 L 16.9375 5.5 L 16.9375 5.625 L 16.625 5.6875 L 16.375 5.8125 L 16.375 5.9375 L 15.9375 6.0625 L 15.25 6.4375 L 14.875 6.625 L 14.875 6.75 L 14.5625 6.8125 L 14.0625 7.125 L 13.625 7.3125 L 12.75 7.8125 L 12.125 8.125 L 11.25 8.625 L 10.5 9 L 9.875 9.375 L 9.1875 9.75 L 8.5625 10.0625 L 7.1875 10.8125 L 6.8125 11 L 5.1875 11.875 L 5.25 12.125 L 6.4375 12.8125 L 7.1875 13.1875 L 7.8125 13.5625 L 9.1875 14.3125 L 9.9375 14.75 L 10.4375 15 L 11.6875 15.6875 L 12.0625 15.625 L 13.125 15.0625 L 14 14.5625 L 14.875 14.125 L 15.875 13.5625 L 16.75 13.0625 L 17.5625 12.625 L 18.125 12.3125 L 19.0625 11.8125 L 19.3125 11.875 L 20.3125 12.4375 L 20.9375 12.75 L 21.8125 13.25 L 22.4375 13.5625 L 23.1875 14 L 23.9375 14.375 L 24.6875 14.8125 L 25.3125 15.125 L 26.3125 15.6875 L 26.625 15.6875 L 29.375 14.1875 L 31.0625 13.25 L 31.9375 12.75 L 32.5625 12.375 L 33.1875 12.0625 L 33.1875 11.9375 L 31.6875 11.125 L 31.4375 10.9375 L 31 10.75 L 30.625 10.5 L 30.1875 10.3125 L 29.375 9.875 L 27.3125 8.75 L 25.875 7.9375 L 24.9375 7.4375 L 23.9375 6.9375 L 23.5625 6.6875 L 23.0625 6.4375 L 22.375 6.0625 L 21.875 5.75 L 21.625 5.75 L 21.625 5.625 L 19.4375 4.5 L 19.25 4.375 Z M 19.0625 4.375 "/>
<path style=" stroke:none;fill-rule:nonzero;fill:rgb(52.941179%,26.666668%,88.627452%);fill-opacity:1;" d="M 26.75 28.1875 L 27.0625 28.375 L 27.4375 28.5625 L 27.4375 32.75 L 26.4375 33.3125 L 24.75 34.25 L 23.25 35.0625 L 22.4375 35.5625 L 22.125 35.6875 L 21.9375 35.625 L 21.75 35.125 L 21.6875 34.875 L 21.9375 34.5625 L 22 34.3125 L 22.5625 33.625 L 23.125 33 L 23.625 32.3125 L 23.875 32.0625 L 24 32.0625 L 24.125 31.75 L 24.75 31 L 25.3125 30 L 25.6875 29.4375 L 26.0625 28.75 L 26.3125 28.4375 Z M 26.75 28.1875 "/>
<path style=" stroke:none;fill-rule:nonzero;fill:rgb(98.039216%,97.254902%,99.215686%);fill-opacity:1;" d="M 54.6875 14.3125 L 59.75 14.3125 L 60.25 15.125 L 61.25 16.875 L 62.125 18.375 L 62.625 17.5625 L 63.5625 15.9375 L 64.4375 14.4375 L 64.5625 14.3125 L 69.375 14.3125 L 69.5625 14.4375 L 69.5625 14.8125 L 68.625 16.3125 L 67.9375 17.375 L 67.0625 18.75 L 66.0625 20.3125 L 65.1875 21.6875 L 64.5625 22.625 L 64.5 27.6875 L 64.375 28 L 64.3125 28.0625 L 62.9375 28.125 L 61.5 28.125 L 59.8125 28.0625 L 59.625 27.875 L 59.5625 22.6875 L 58.5625 21.125 L 57.375 19.3125 L 56.375 17.75 L 55.3125 16.125 L 54.625 15.0625 L 54.4375 14.75 L 54.5 14.4375 Z M 54.6875 14.5625 L 55 15.125 L 55.625 16.0625 L 57 18.1875 L 57.9375 19.625 L 58.9375 21.1875 L 59.875 22.625 L 59.9375 27.8125 L 64.125 27.8125 L 64.1875 27.75 L 64.25 22.5625 L 65.0625 21.3125 L 65.9375 19.9375 L 68.9375 15.25 L 69.3125 14.6875 L 69.3125 14.5625 L 64.75 14.5625 L 64.375 15.125 L 63.375 16.875 L 62.4375 18.5 L 62.1875 18.9375 L 61.9375 18.6875 L 61.3125 17.5625 L 60.4375 16.0625 L 59.625 14.625 L 59.5625 14.5625 Z M 54.6875 14.5625 "/>
<path style=" stroke:none;fill-rule:nonzero;fill:rgb(98.431373%,97.647059%,99.215686%);fill-opacity:1;" d="M 70.5625 14.3125 L 80.1875 14.3125 L 80.9375 14.5 L 81.8125 14.9375 L 82.5 15.5 L 82.9375 16.125 L 83.25 16.8125 L 83.375 17.375 L 83.375 18.3125 L 83.3125 18.6875 L 83.0625 19.5 L 82.6875 20.125 L 82.25 20.5625 L 81.75 20.875 L 82 21.0625 L 82.625 21.5 L 83.125 22.0625 L 83.4375 22.6875 L 83.6875 23.75 L 83.6875 24.6875 L 83.4375 25.6875 L 83.125 26.3125 L 82.5625 26.9375 L 82.0625 27.375 L 81.1875 27.8125 L 80.1875 28.0625 L 79.0625 28.125 L 71.9375 28.125 L 70.5 28.0625 L 70.3125 27.875 L 70.3125 14.5625 Z M 70.625 14.5625 L 70.625 27.8125 L 79.6875 27.8125 L 80.625 27.6875 L 81.3125 27.4375 L 82 27.0625 L 82.5625 26.5625 L 83 25.9375 L 83.25 25.3125 L 83.375 24.6875 L 83.375 23.8125 L 83.25 23.0625 L 82.9375 22.3125 L 82.5625 21.8125 L 82.0625 21.4375 L 81.4375 21.125 L 80.875 21 L 80.875 20.875 L 81.5 20.6875 L 82.125 20.25 L 82.625 19.6875 L 82.9375 19 L 83.0625 18.3125 L 83.0625 17.375 L 82.875 16.6875 L 82.625 16.1875 L 82.1875 15.625 L 81.5625 15.125 L 80.75 14.75 L 79.75 14.5625 Z M 70.625 14.5625 "/>
<path style=" stroke:none;fill-rule:nonzero;fill:rgb(98.039216%,96.862745%,99.215686%);fill-opacity:1;" d="M 107.375 14.3125 L 112.5625 14.3125 L 112.875 14.9375 L 114.1875 18.5625 L 115.3125 21.625 L 116.5625 25.0625 L 117.5 27.625 L 117.4375 27.9375 L 117.375 28.0625 L 112.5625 28.0625 L 112.375 27.75 L 111.9375 26.25 L 107.75 26.1875 L 107.625 26.75 L 107.25 27.9375 L 107.1875 28.0625 L 102.5625 28.0625 L 102.375 27.8125 L 102.5 27.25 L 103.8125 23.625 L 104.9375 20.5625 L 106.1875 17.125 L 107.125 14.5625 Z M 107.4375 14.5625 L 106.75 16.4375 L 106.1875 18 L 105.75 19.1875 L 105.0625 21.0625 L 104.5 22.5625 L 104.125 23.625 L 103.5625 25.125 L 102.6875 27.625 L 102.6875 27.8125 L 107 27.8125 L 107.5625 26 L 112.1875 25.9375 L 112.25 26.3125 L 112.625 27.5625 L 112.75 27.8125 L 117.1875 27.8125 L 117.125 27.4375 L 116 24.3125 L 115.125 21.9375 L 114.5625 20.4375 L 114.0625 19 L 113.625 17.8125 L 112.9375 16 L 112.4375 14.5625 Z M 107.4375 14.5625 "/>
<path style=" stroke:none;fill-rule:nonzero;fill:rgb(52.941179%,26.666668%,88.627452%);fill-opacity:1;" d="M 34.5625 17.375 L 35.0625 17.5625 L 35.375 17.8125 L 35.5 17.875 L 35.5 20.5625 L 35.1875 20.8125 L 34.1875 21.3125 L 32.0625 22.5 L 31.625 22.75 L 31.375 22.6875 L 31.625 22.3125 L 31.5625 21.75 L 31.8125 21.3125 L 31.9375 21.0625 L 32.625 20.25 L 33.0625 19.6875 L 33.5 19.0625 L 33.75 18.375 L 34.125 17.8125 L 34.4375 17.4375 Z M 34.5625 17.375 "/>
<path style=" stroke:none;fill-rule:nonzero;fill:rgb(97.647059%,96.862745%,99.215686%);fill-opacity:1;" d="M 118.625 14.3125 L 123 14.3125 L 123.25 14.5 L 123.25 27.875 L 123.0625 28.0625 L 121.6875 28.125 L 120.5 28.125 L 118.5625 28.0625 L 118.4375 27.9375 L 118.4375 14.4375 Z M 118.6875 14.5625 L 118.6875 27.8125 L 122.9375 27.8125 L 122.9375 14.5625 Z M 118.6875 14.5625 "/>
<path style=" stroke:none;fill-rule:nonzero;fill:rgb(52.941179%,27.058825%,88.627452%);fill-opacity:1;" d="M 2.8125 17.4375 L 2.875 17.4375 L 2.9375 18.0625 L 3.0625 18.0625 L 3.125 18.4375 L 3.375 18.375 L 3.8125 18.5625 L 4.0625 18.9375 L 4.875 19.8125 L 5.1875 20.1875 L 5.8125 20.625 L 6.3125 21.3125 L 6.5625 21.5625 L 6.625 21.875 L 6.375 21.875 L 6.6875 22.1875 L 7.1875 22.5625 L 6.9375 22.625 L 6.75 22.6875 L 6.4375 22.625 L 5.6875 22.1875 L 4.8125 21.75 L 4.1875 21.375 L 2.8125 20.625 Z M 2.8125 17.4375 "/>
<path style=" stroke:none;fill-rule:nonzero;fill:rgb(98.823529%,98.039216%,99.215686%);fill-opacity:1;" d="M 32.8125 23.5625 L 33.125 23.5625 L 33.3125 23.9375 L 33.3125 24.8125 L 33.375 24.875 L 33.375 28.3125 L 33.25 28.8125 L 32.875 29.125 L 31.875 29.6875 L 31.1875 30.0625 L 30 30.6875 L 29.375 31 L 29 30.9375 L 28.9375 30.8125 L 28.9375 25.75 L 29.3125 25.4375 L 31.0625 24.5 L 32.5 23.6875 Z M 32.9375 23.8125 L 32.1875 24.1875 L 31.3125 24.6875 L 30.6875 25 L 29.3125 25.75 L 29.1875 25.8125 L 29.1875 30.75 L 29.4375 30.6875 L 31.0625 29.8125 L 32.0625 29.25 L 32.875 28.8125 L 33.0625 28.625 L 33.0625 23.8125 Z M 32.9375 23.8125 "/>
<path style=" stroke:none;fill-rule:nonzero;fill:rgb(98.823529%,98.823529%,99.215686%);fill-opacity:1;" d="M 5.25 23.5 L 5.625 23.625 L 7.3125 24.5 L 8.75 25.3125 L 9.3125 25.625 L 9.375 25.75 L 9.375 30.875 L 9.25 31.0625 L 8.8125 31.0625 L 7.0625 30.125 L 5.9375 29.5 L 5.0625 29 L 5 28.875 L 5 23.8125 Z M 5.25 23.8125 L 5.25 28.75 L 5.6875 29.0625 L 6.3125 29.375 L 7.6875 30.125 L 8.9375 30.8125 L 9.125 30.8125 L 9.125 25.8125 L 7.75 25.0625 L 6.125 24.1875 L 5.375 23.8125 Z M 5.25 23.8125 "/>
<path style=" stroke:none;fill-rule:nonzero;fill:rgb(67.450982%,48.235294%,96.078432%);fill-opacity:1;" d="M 2.75 12.5 L 3.3125 12.75 L 3.6875 12.9375 L 4 13.25 L 4.625 13.6875 L 5.8125 14.4375 L 9 16.5625 L 10.0625 17.25 L 11.75 18.375 L 13.125 19.25 L 14.5625 20.1875 L 14.8125 20.4375 L 14.5 20.3125 L 13.125 19.5 L 12.125 19 L 11.5625 18.625 L 11.25 18.3125 L 10.6875 18 L 10.25 17.5625 L 9.5625 17.125 L 7.875 16 L 7.1875 15.5625 L 5.625 14.6875 L 5.1875 14.4375 L 4.5625 14.0625 L 3.875 13.6875 L 3.1875 13.375 L 3.5625 13.625 L 4.3125 14.1875 L 4.625 14.4375 L 5 14.6875 L 5.0625 14.8125 L 4.5625 14.8125 L 4.0625 14.5 L 3.4375 14.0625 L 3.25 14.0625 L 3.25 13.8125 L 3.0625 13.8125 L 3.0625 13.625 L 2.875 13.5625 L 2.8125 13.125 L 2.75 13.0625 Z M 2.75 12.5 "/>
<path style=" stroke:none;fill-rule:nonzero;fill:rgb(95.686275%,93.333334%,98.823529%);fill-opacity:1;" d="M 74.875 22.4375 L 78.3125 22.4375 L 78.6875 22.625 L 79 23 L 79.0625 23.1875 L 79.0625 24.0625 L 78.8125 24.4375 L 78.625 24.625 L 78.4375 24.6875 L 77.75 24.75 L 74.9375 24.75 L 74.875 24.6875 Z M 75.1875 22.75 L 75.1875 24.4375 L 78.25 24.4375 L 78.5625 24.25 L 78.8125 23.875 L 78.8125 23.3125 L 78.5625 22.9375 L 78.3125 22.75 Z M 75.1875 22.75 "/>
<path style=" stroke:none;fill-rule:nonzero;fill:rgb(41.176471%,15.686275%,75.686276%);fill-opacity:1;" d="M 8.3125 10.1875 L 8.4375 10.25 L 8.125 10.5625 L 7.875 10.75 L 7.75 10.75 L 7.6875 10.9375 L 7.0625 11.4375 L 6.8125 11.6875 L 6.5 11.9375 L 6.5625 12.1875 L 6.8125 12.4375 L 6.8125 12.5625 L 7 12.5625 L 7 12.6875 L 7.25 12.75 L 7.875 13.1875 L 8.5625 13.625 L 8.9375 13.875 L 8.9375 14 L 9.3125 14.0625 L 9.625 14.375 L 10.375 14.75 L 10.375 14.875 L 10.6875 14.9375 L 11.125 15.1875 L 11.25 15.3125 L 11.9375 15.5 L 12.375 15.3125 L 12.5625 15.375 L 11.9375 15.6875 L 11.5625 15.625 L 10.8125 15.1875 L 10.3125 14.9375 L 9.625 14.5625 L 8.375 13.875 L 7.25 13.25 L 6.625 12.875 L 5.75 12.4375 L 5.1875 12.0625 L 5.1875 11.875 L 6.8125 11 L 8 10.375 Z M 8.3125 10.1875 "/>
<path style=" stroke:none;fill-rule:nonzero;fill:rgb(95.686275%,93.725491%,99.215686%);fill-opacity:1;" d="M 109.8125 18.25 L 109.9375 18.25 L 110.3125 19.625 L 110.6875 20.8125 L 111.0625 22.1875 L 111.25 22.8125 L 111.25 23 L 108.5 23 L 108.4375 22.8125 L 108.9375 21.0625 L 109.5 19.25 Z M 109.8125 19.1875 L 108.8125 22.5625 L 108.8125 22.6875 L 110.875 22.6875 L 110.75 22.0625 L 109.9375 19.3125 Z M 109.8125 19.1875 "/>
<path style=" stroke:none;fill-rule:nonzero;fill:rgb(94.117647%,90.980393%,98.039216%);fill-opacity:1;" d="M 74.875 17.4375 L 77.625 17.4375 L 78.25 17.5625 L 78.5625 17.8125 L 78.75 18.1875 L 78.75 19.0625 L 78.5 19.4375 L 78.1875 19.6875 L 77.6875 19.75 L 74.875 19.75 Z M 75.1875 17.75 L 75.1875 19.4375 L 77.9375 19.4375 L 78.3125 19.25 L 78.5 18.875 L 78.5 18.3125 L 78.25 17.9375 L 77.875 17.75 Z M 75.1875 17.75 "/>
<path style=" stroke:none;fill-rule:nonzero;fill:rgb(40.784314%,15.294118%,75.686276%);fill-opacity:1;" d="M 19.8125 12.0625 L 20.1875 12.125 L 20.5625 12.3125 L 20.9375 12.4375 L 21.1875 12.625 L 21.5 12.6875 L 21.875 12.9375 L 21.875 13.0625 L 22.4375 13.1875 L 23.6875 13.875 L 24.125 14.0625 L 25.1875 14.625 L 25.6875 14.9375 L 26.1875 15.1875 L 26.6875 15.3125 L 27.3125 15.125 L 27.6875 14.9375 L 27.875 15 L 27 15.5 L 26.625 15.6875 L 26.1875 15.625 L 25.5 15.25 L 24.875 14.875 L 24 14.4375 L 23.375 14.0625 L 22.5 13.625 L 22 13.3125 L 21.3125 12.9375 L 20.6875 12.625 L 19.8125 12.125 Z M 19.8125 12.0625 "/>
<path style=" stroke:none;fill-rule:nonzero;fill:rgb(67.058825%,47.843137%,95.686275%);fill-opacity:1;" d="M 8.9375 17.25 L 9.25 17.375 L 10.0625 17.875 L 10.875 18.5 L 11.75 19.125 L 12.0625 19.375 L 12.9375 19.875 L 12.875 19.75 L 13.125 19.875 L 13.75 20.25 L 14.1875 20.5 L 14.5 20.75 L 15 21 L 16.0625 21.875 L 15.875 21.875 L 15.3125 21.5625 L 15.375 21.625 L 15.9375 22.0625 L 15.9375 22.1875 L 16.125 22.25 L 16 22.3125 L 15 21.625 L 14.5625 21.25 L 13.8125 20.6875 L 12.8125 20.0625 L 12.375 19.8125 L 12 19.5625 L 11.125 18.875 L 10.625 18.5625 L 10.125 18.125 L 9.75 17.875 L 9.0625 17.4375 Z M 8.9375 17.25 "/>
<path style=" stroke:none;fill-rule:nonzero;fill:rgb(67.058825%,47.843137%,95.686275%);fill-opacity:1;" d="M 27.9375 18.6875 L 28.0625 18.75 L 27.25 19.4375 L 26.5 20 L 25.6875 20.6875 L 24.875 21.25 L 24.25 21.75 L 24.1875 21.625 L 24.1875 21.4375 L 23.875 21.75 L 23.75 21.6875 L 24.1875 21.25 L 24.75 20.8125 L 25.5 20.25 L 25.5 20.0625 L 26.125 19.8125 L 26.8125 19.375 L 27.3125 19.0625 L 27.625 18.9375 L 27.8125 18.75 Z M 27.9375 18.6875 "/>
<path style=" stroke:none;fill-rule:nonzero;fill:rgb(67.450982%,48.235294%,96.078432%);fill-opacity:1;" d="M 24.625 22.9375 L 24.875 23 L 24.75 23.25 L 24.625 23.25 L 24.5625 23.6875 L 24.25 23.9375 L 24.1875 24.0625 L 24.3125 24.0625 L 24.4375 24.1875 L 24.6875 24.1875 L 24.5625 24.6875 L 24.3125 24.5625 L 24.3125 24.6875 L 24.1875 24.6875 L 24.0625 25.25 L 23.8125 25.1875 L 23.375 25 L 23.3125 24.75 L 23.375 24.5 L 23.6875 24.5 L 23.8125 24.25 L 24.0625 23.6875 L 24.3125 23.1875 L 24.5625 23.1875 Z M 24.625 22.9375 "/>
<path style=" stroke:none;fill-rule:nonzero;fill:rgb(42.745098%,17.254902%,76.862746%);fill-opacity:1;" d="M 19.0625 4.375 L 19.375 4.4375 L 20.5625 5.0625 L 21.625 5.625 L 21.625 5.75 L 21.9375 5.8125 L 22.5625 6.1875 L 23.1875 6.5 L 23.75 6.8125 L 24.5625 7.25 L 24.3125 7.3125 L 23.3125 6.8125 L 22.1875 6.1875 L 21.25 5.8125 L 21.25 5.6875 L 21.0625 5.6875 L 21.0625 5.5625 L 20.5625 5.4375 L 20.5625 5.3125 L 19.9375 5.125 L 19.875 4.9375 L 19.3125 4.9375 L 19.1875 4.5 Z M 19.0625 4.375 "/>
<path style=" stroke:none;fill-rule:nonzero;fill:rgb(67.058825%,47.843137%,95.686275%);fill-opacity:1;" d="M 18.6875 31.625 L 18.875 31.6875 L 19 31.9375 L 19.3125 32.0625 L 19.3125 32.375 L 19.5 32.6875 L 19.375 33.3125 L 19.1875 33.6875 L 18.9375 33.75 L 18.875 33.5625 L 18.6875 31.875 Z M 18.6875 31.625 "/>
<path style=" stroke:none;fill-rule:nonzero;fill:rgb(67.058825%,47.843137%,95.686275%);fill-opacity:1;" d="M 14.5625 23.375 L 14.875 23.375 L 14.9375 23.75 L 14.9375 23.9375 L 14.6875 23.875 L 14.6875 24 L 14.4375 24 L 14.6875 24.4375 L 14.875 24.8125 L 14.8125 24.9375 L 14.8125 25.4375 L 14.4375 25.125 L 14.25 25.0625 L 14.0625 24.8125 L 14.0625 24.625 L 14.1875 24.625 L 13.9375 24.0625 L 14 23.8125 L 14.375 24.375 L 14.25 23.625 Z M 14.5625 23.375 "/>
<path style=" stroke:none;fill-rule:nonzero;fill:rgb(67.058825%,47.843137%,95.686275%);fill-opacity:1;" d="M 2.8125 13.125 L 3.125 13.25 L 3.25 13.4375 L 3.5625 13.625 L 4.3125 14.1875 L 4.625 14.4375 L 5 14.6875 L 5.0625 14.8125 L 4.5625 14.8125 L 4.0625 14.5 L 3.4375 14.0625 L 3.25 14.0625 L 3.25 13.8125 L 3.0625 13.8125 L 3.0625 13.625 L 2.875 13.5625 Z M 2.8125 13.125 "/>
<path style=" stroke:none;fill-rule:nonzero;fill:rgb(68.235296%,49.411765%,96.078432%);fill-opacity:1;" d="M 35.3125 12.5625 L 35.5625 12.5625 L 35.5625 16.4375 L 35.5 16.4375 L 35.5 13.125 L 34.75 13.25 L 33.625 13.875 L 33.5 13.8125 L 34.4375 13.0625 Z M 35.3125 12.5625 "/>
<path style=" stroke:none;fill-rule:nonzero;fill:rgb(67.450982%,48.235294%,96.078432%);fill-opacity:1;" d="M 20.5 26.0625 L 20.8125 26.1875 L 21.125 26.4375 L 21.0625 26.5625 L 21.1875 26.5625 L 21.125 26.9375 L 20.6875 27.3125 L 20.4375 27.375 L 20.4375 27.25 L 20.25 27.1875 L 20.1875 26.875 L 20.3125 26.8125 L 20.375 26.625 L 20.1875 26.5625 L 20.25 26.3125 L 20.4375 26.3125 Z M 20.5 26.0625 "/>
<path style=" stroke:none;fill-rule:nonzero;fill:rgb(43.529412%,18.039216%,78.039217%);fill-opacity:1;" d="M 9.375 14.375 L 9.8125 14.4375 L 10.375 14.75 L 10.375 14.875 L 10.6875 14.9375 L 11.125 15.1875 L 11.25 15.3125 L 11.9375 15.5 L 12.375 15.3125 L 12.5625 15.375 L 11.9375 15.6875 L 11.5625 15.625 L 10.8125 15.1875 L 10.3125 14.9375 L 9.625 14.5625 Z M 9.375 14.375 "/>
<path style=" stroke:none;fill-rule:nonzero;fill:rgb(67.450982%,48.235294%,96.078432%);fill-opacity:1;" d="M 14.5625 23.375 L 14.875 23.375 L 14.9375 23.75 L 14.9375 23.9375 L 14.6875 23.875 L 14.6875 24 L 14.4375 24 L 14.375 24.1875 L 14.25 23.625 Z M 14.5625 23.375 "/>
<path style=" stroke:none;fill-rule:nonzero;fill:rgb(44.313726%,18.82353%,78.823531%);fill-opacity:1;" d="M 23.0625 6.5 L 23.375 6.625 L 23.75 6.8125 L 24.5625 7.25 L 24.3125 7.3125 L 23.3125 6.8125 L 23.0625 6.5625 Z M 23.0625 6.5 "/>
<path style=" stroke:none;fill-rule:nonzero;fill:rgb(43.529412%,18.039216%,78.039217%);fill-opacity:1;" d="M 12.375 15.3125 L 12.5625 15.375 L 11.9375 15.6875 L 11.5625 15.625 L 11.3125 15.5 L 11.3125 15.375 L 11.9375 15.5 Z M 12.375 15.3125 "/>
<path style=" stroke:none;fill-rule:nonzero;fill:rgb(44.705883%,19.215687%,78.823531%);fill-opacity:1;" d="M 10.5 14.875 L 10.9375 15.0625 L 11.3125 15.375 L 11.125 15.375 L 10.5 15.0625 Z M 10.5 14.875 "/>
<path style=" stroke:none;fill-rule:nonzero;fill:rgb(47.450981%,22.745098%,81.568629%);fill-opacity:1;" d="M 24.5625 7.3125 L 24.9375 7.4375 L 25.375 7.6875 L 25.125 7.75 L 24.625 7.5 Z M 24.5625 7.3125 "/>
</g>
</svg>
